<?xml version="1.0" encoding="UTF-8" standalone="no"?>
<!-- Created with Inkscape (http://www.inkscape.org/) -->

<svg
   xmlns:dc="http://purl.org/dc/elements/1.1/"
   xmlns:cc="http://creativecommons.org/ns#"
   xmlns:rdf="http://www.w3.org/1999/02/22-rdf-syntax-ns#"
   xmlns:svg="http://www.w3.org/2000/svg"
   xmlns="http://www.w3.org/2000/svg"
   xmlns:sodipodi="http://sodipodi.sourceforge.net/DTD/sodipodi-0.dtd"
   xmlns:inkscape="http://www.inkscape.org/namespaces/inkscape"
   width="38.197479mm"
   height="45.293556mm"
   viewBox="0 0 135.3454 160.48898"
   id="svg2"
   version="1.1"
   inkscape:version="0.91 r13725"
   sodipodi:docname="logo_svg_v1.svg">
  <sodipodi:namedview
     id="base"
     pagecolor="#ffffff"
     bordercolor="#666666"
     borderopacity="1.0"
     inkscape:pageopacity="0.0"
     inkscape:pageshadow="2"
     inkscape:zoom="2.8"
     inkscape:cx="77.91725"
     inkscape:cy="83.668686"
     inkscape:document-units="px"
     inkscape:current-layer="layer1"
     showgrid="false"
     inkscape:window-width="1366"
     inkscape:window-height="705"
     inkscape:window-x="-8"
     inkscape:window-y="-8"
     inkscape:window-maximized="1"
     fit-margin-top="0"
     fit-margin-left="0"
     fit-margin-right="0"
     fit-margin-bottom="0" />
  <defs
     id="defs4">
    <marker
       inkscape:stockid="DiamondS"
       orient="auto"
       refY="0.0"
       refX="0.0"
       id="marker4893"
       style="overflow:visible"
       inkscape:isstock="true">
      <path
         id="path4895"
         d="M 0,-7.0710768 L -7.0710894,0 L 0,7.0710589 L 7.0710462,0 L 0,-7.0710768 z "
         style="fill-rule:evenodd;stroke:#87decd;stroke-width:1pt;stroke-opacity:1;fill:#87decd;fill-opacity:1"
         transform="scale(0.2)" />
    </marker>
    <marker
       inkscape:stockid="DiamondS"
       orient="auto"
       refY="0.0"
       refX="0.0"
       id="marker4853"
       style="overflow:visible"
       inkscape:isstock="true">
      <path
         id="path4855"
         d="M 0,-7.0710768 L -7.0710894,0 L 0,7.0710589 L 7.0710462,0 L 0,-7.0710768 z "
         style="fill-rule:evenodd;stroke:#87decd;stroke-width:1pt;stroke-opacity:1;fill:#87decd;fill-opacity:1"
         transform="scale(0.2)" />
    </marker>
    <marker
       inkscape:stockid="SquareS"
       orient="auto"
       refY="0.0"
       refX="0.0"
       id="SquareS"
       style="overflow:visible"
       inkscape:isstock="true">
      <path
         id="path4519"
         d="M -5.0,-5.0 L -5.0,5.0 L 5.0,5.0 L 5.0,-5.0 L -5.0,-5.0 z "
         style="fill-rule:evenodd;stroke:#87decd;stroke-width:1pt;stroke-opacity:1;fill:#87decd;fill-opacity:1"
         transform="scale(0.2)" />
    </marker>
    <marker
       inkscape:stockid="SquareM"
       orient="auto"
       refY="0.0"
       refX="0.0"
       id="SquareM"
       style="overflow:visible"
       inkscape:isstock="true">
      <path
         id="path4516"
         d="M -5.0,-5.0 L -5.0,5.0 L 5.0,5.0 L 5.0,-5.0 L -5.0,-5.0 z "
         style="fill-rule:evenodd;stroke:#87decd;stroke-width:1pt;stroke-opacity:1;fill:#87decd;fill-opacity:1"
         transform="scale(0.4)" />
    </marker>
    <marker
       inkscape:stockid="DiamondS"
       orient="auto"
       refY="0.0"
       refX="0.0"
       id="DiamondS"
       style="overflow:visible"
       inkscape:isstock="true">
      <path
         id="path4528"
         d="M 0,-7.0710768 L -7.0710894,0 L 0,7.0710589 L 7.0710462,0 L 0,-7.0710768 z "
         style="fill-rule:evenodd;stroke:#87decd;stroke-width:1pt;stroke-opacity:1;fill:#87decd;fill-opacity:1"
         transform="scale(0.2)" />
    </marker>
    <marker
       inkscape:stockid="CurveIn"
       orient="auto"
       refY="0.0"
       refX="0.0"
       id="CurveIn"
       style="overflow:visible"
       inkscape:isstock="true">
      <path
         id="path4627"
         d="M 4.6254930,-5.0456926 C 1.8654930,-5.0456926 -0.37450702,-2.8056926 -0.37450702,-0.045692580 C -0.37450702,2.7143074 1.8654930,4.9543074 4.6254930,4.9543074"
         style="fill-rule:evenodd;stroke:#87decd;stroke-width:1pt;fill:none;stroke-opacity:1"
         transform="scale(0.6)" />
    </marker>
    <marker
       inkscape:stockid="Legs"
       orient="auto"
       refY="0.0"
       refX="0.0"
       id="Legs"
       style="overflow:visible"
       inkscape:isstock="true">
      <g
         id="g4642"
         transform="scale(-0.7)"
         style="stroke:#87decd;stroke-opacity:1;fill:#87decd;fill-opacity:1">
        <g
           id="g4644"
           transform="matrix(0,-1.000000,-1.000000,0,20.70862,21.31391)"
           style="stroke:#87decd;stroke-opacity:1;fill:#87decd;fill-opacity:1">
          <path
             id="path4646"
             d="M 21.221250,20.675360 C 14.311099,25.396517 18.766725,27.282204 15.380179,34.118595"
             style="fill:#87decd;fill-opacity:1;fill-rule:evenodd;stroke:#87decd;stroke-width:1pt;stroke-opacity:1" />
          <path
             id="path4648"
             d="M 21.398110,20.548120 C 20.037601,28.895644 24.934182,29.318060 25.903151,34.373078"
             style="fill:#87decd;fill-opacity:1;fill-rule:evenodd;stroke:#87decd;stroke-width:1pt;stroke-opacity:1" />
        </g>
        <path
           id="path4650"
           d="M -14.090070,-6.7318716 L -15.012238,-2.6884886 L -11.049487,-3.9115586 L -14.090070,-6.7318716 z "
           style="fill:#87decd;fill-rule:evenodd;stroke-width:1pt;stroke:#87decd;stroke-opacity:1;fill-opacity:1" />
        <path
           id="path4652"
           d="M -15.215679,4.5567534 L -13.341552,8.2563664 L -11.074678,4.7835114 L -15.215679,4.5567534 z "
           style="fill:#87decd;fill-rule:evenodd;stroke-width:1pt;stroke:#87decd;stroke-opacity:1;fill-opacity:1" />
      </g>
    </marker>
    <marker
       style="overflow:visible"
       inkscape:stockid="InfiniteLineEnd"
       id="InfiniteLineEnd"
       refX="0"
       refY="0"
       orient="auto"
       inkscape:isstock="true">
      <g
         id="g4678"
         style="fill:#87decd;stroke:#87decd;stroke-opacity:1;fill-opacity:1">
        <circle
           id="circle4680"
           r="0.8"
           cy="0"
           cx="3"
           style="stroke:#87decd;stroke-opacity:1;fill:#87decd;fill-opacity:1" />
        <circle
           id="circle4682"
           r="0.8"
           cy="0"
           cx="6.5"
           style="stroke:#87decd;stroke-opacity:1;fill:#87decd;fill-opacity:1" />
        <circle
           id="circle4684"
           r="0.8"
           cy="0"
           cx="10"
           style="stroke:#87decd;stroke-opacity:1;fill:#87decd;fill-opacity:1" />
      </g>
    </marker>
    <marker
       inkscape:stockid="DotL"
       orient="auto"
       refY="0.0"
       refX="0.0"
       id="DotL"
       style="overflow:visible"
       inkscape:isstock="true">
      <path
         id="path4504"
         d="M -2.5,-1.0 C -2.5,1.7600000 -4.7400000,4.0 -7.5,4.0 C -10.260000,4.0 -12.5,1.7600000 -12.5,-1.0 C -12.5,-3.7600000 -10.260000,-6.0 -7.5,-6.0 C -4.7400000,-6.0 -2.5,-3.7600000 -2.5,-1.0 z "
         style="fill-rule:evenodd;stroke:#87decd;stroke-width:1pt;stroke-opacity:1;fill:#87decd;fill-opacity:1"
         transform="scale(0.8) translate(7.4, 1)" />
    </marker>
    <inkscape:path-effect
       effect="skeletal"
       id="path-effect4304"
       is_visible="true"
       pattern="m -2.8966052,6.0043493 c 11.8549836,-3.29386 23.7099632,-6.32511009 35.5649532,-6.50593009 11.85498,-0.18082 23.70996,2.52720009 35.56495,5.80148009 11.85498,3.27428 23.70997,6.5987497 35.564952,7.1340997 11.85498,0.53535 23.70997,-1.8127 35.56495,-5.0290097 11.85498,-3.21632 23.70997,-6.79503005 35.56495,-7.67863009 11.85498,-0.88361001 23.70997,1.07695004 35.56495,4.19759009 11.85499,3.12064 23.70997,6.9116297 35.56495,8.1331297 11.85499,1.22151 23.70997,-0.32857 35.56495,-3.3169497 11.85499,-2.98838 23.70997,-6.94721 35.56496,-8.49229005 11.85498,-1.54508005 23.70996,-0.42365004 35.56495,2.39743005 11.85498,2.82108 23.70996,6.9013302 35.56495,8.7518697 11.85498,1.85054 23.70996,1.17092 35.56495,-1.4497895 11.85498,-2.6207102 23.70997,-6.7745502 35.56495,-8.9088602 11.85498,-2.1343001 23.70997,-1.90445009 35.56495,0.48516 11.85498,2.38961 23.70997,6.56835 35.56495,8.9613897 11.85499,2.39305 23.70997,2.61566 35.56495,0.48516 11.85499,-2.1304897 23.70997,-6.2851197 35.56495,-8.9088497 11.85499,-2.62373009 23.70997,-3.2962001 35.56495,-1.44979005 11.85499,1.84640005 23.70997,5.92822005 35.56496,8.75187025 11.85498,2.8236595 23.70996,3.9380895 35.56495,2.3974295 11.85498,-1.54067 23.70996,-5.5018197 35.56495,-8.4922897 11.85498,-2.99048005 23.70997,-4.5338201 35.56495,-3.31695009 11.85498,1.21686009 23.70997,5.01090009 35.56495,8.13313009 11.85498,3.1222397 23.70997,5.0763897 35.56495,4.1975897 11.85498,-0.87879 23.70997,-4.4612397 35.56495,-7.6786297 11.85499,-3.21739 23.71001,-5.55944009 35.56491,-5.02901009 11.855,0.53042004 23.71,3.85928009 35.565,7.13410009 11.855,3.2748202 23.71,5.9773097 35.5649,5.8014797 11.85492,-0.17583 23.70992,-3.2120695 35.56492,-6.5059297"
       copytype="single_stretched"
       prop_scale="1"
       scale_y_rel="false"
       spacing="0"
       normal_offset="0"
       tang_offset="0"
       prop_units="false"
       vertical_pattern="false"
       fuse_tolerance="0" />
    <inkscape:path-effect
       fuse_tolerance="0"
       vertical_pattern="false"
       prop_units="false"
       tang_offset="0"
       normal_offset="0"
       spacing="0"
       scale_y_rel="false"
       prop_scale="1"
       copytype="single_stretched"
       pattern="M 0.20999856,36.396646 C 4.9065286,28.563726 9.6030586,20.755176 14.299579,14.517896 c 4.69653,-6.2372802 9.39305,-10.8583102 14.08958,-12.9562902 4.69653,-2.09799 9.39305,-1.64698 14.08958,1.24992 4.69653,2.8969 9.39305,8.2360102 14.08958,14.9464002 4.69653,6.71038 9.39305,14.76025 14.08958,22.54753 4.69653,7.78728 9.39305,15.26504 14.08958,20.95346 4.69652,5.68842 9.39305,9.54455 14.08958,10.81429 4.696521,1.26974 9.393051,-0.0684 14.089571,-3.73511 4.69653,-3.66676 9.39306,-9.65337 14.08959,-16.76128 4.69652,-7.1079 9.39305,-15.30161 14.08957,-22.95196 4.69653,-7.65034 9.39306,-14.70965 14.08958,-19.7825102 4.69653,-5.07287 9.39306,-8.11889 14.08958,-8.5455 4.69653,-0.4266 9.39305,1.78288 14.08958,6.17651 4.69653,4.3936302 9.39306,10.9575602 14.08958,18.3796402 4.69653,7.42208 9.39305,15.66359 14.08958,23.0873 4.69653,7.42371 9.39305,13.9818 14.08958,18.37964 4.69652,4.39784 9.39305,6.59803 14.08958,6.1765 4.69652,-0.42152 9.39305,-3.4765 14.08958,-8.54548 4.69652,-5.06899 9.39305,-12.13327 14.08957,-19.78252 4.69653,-7.64925 9.39306,-15.84192 14.08959,-22.95196 4.69652,-7.11004 9.39305,-13.0900202 14.08957,-16.7612802 4.69653,-3.67126 9.39306,-4.99982 14.08958,-3.73511 4.69653,1.26472 9.39306,5.12937 14.08958,10.8142902 4.69653,5.68492 9.39306,13.16673 14.08958,20.95346 4.69653,7.78674 9.39305,15.83452 14.08958,22.54754 4.69653,6.71301 9.39305,12.04477 14.08957,14.9464 4.69652,2.90162 9.39308,3.343 14.0896,1.24992 4.69652,-2.09308 9.39304,-6.7221 14.08956,-12.9563 4.69652,-6.23419 9.39304,-14.04583 14.0896,-21.87875"
       is_visible="true"
       id="path-effect4256"
       effect="skeletal" />
    <inkscape:path-effect
       effect="skeletal"
       id="path-effect4304-9"
       is_visible="true"
       pattern="m 129.93355,-93.631382 c 11.85498,-3.29386 23.70996,-6.32511 35.56495,-6.505928 11.85498,-0.18082 23.70996,2.527198 35.56495,5.801478 11.85498,3.27428 23.70997,6.59875 35.56495,7.1341 11.85498,0.53535 23.70997,-1.8127 35.56495,-5.02901 11.85498,-3.21632 23.70997,-6.79503 35.56495,-7.67863 11.85498,-0.883608 23.70998,1.07695 35.56496,4.19759 11.85498,3.12064 23.70996,6.91163 35.56494,8.13313 11.85499,1.22151 23.70997,-0.32857 35.56495,-3.31695 11.85499,-2.98838 23.70998,-6.94721 35.56497,-8.49229 11.85498,-1.545078 23.70996,-0.42365 35.56495,2.39743 11.85498,2.82108 23.70996,6.90133 35.56495,8.75187 11.85498,1.85054 23.70996,1.17092 35.56495,-1.44979 11.85498,-2.62071 23.70997,-6.77455 35.56495,-8.90886 11.85498,-2.134298 23.70997,-1.904448 35.56495,0.48516 11.85498,2.38961 23.70997,6.56835 35.56495,8.96139 11.85499,2.39305 23.70997,2.61566 35.56495,0.48516 11.85499,-2.13049 23.70997,-6.28512 35.56495,-8.90885 11.85499,-2.623728 23.70997,-3.296198 35.56495,-1.44979 11.85499,1.8464 23.70997,5.92822 35.56496,8.75187 11.85498,2.82366 23.70996,3.93809 35.56495,2.39743 11.85498,-1.54067 23.70996,-5.50182 35.56495,-8.49229 11.85498,-2.99048 23.70997,-4.533818 35.56495,-3.31695 11.85498,1.21686 23.70997,5.0109 35.56495,8.13313 11.85498,3.12224 23.70997,5.07639 35.56496,4.19759 11.855,-0.87879 23.71001,-4.46124 35.56491,-7.67863 11.855,-3.21739 23.71,-5.559438 35.5649,-5.029008 11.855,0.530418 23.71,3.859278 35.565,7.134098 11.855,3.27482 23.71,5.97731 35.5649,5.80148 11.855,-0.17583 23.71,-3.21207 35.565,-6.50593"
       copytype="single_stretched"
       prop_scale="1"
       scale_y_rel="false"
       spacing="0"
       normal_offset="0"
       tang_offset="0"
       prop_units="false"
       vertical_pattern="false"
       fuse_tolerance="0" />
    <inkscape:path-effect
       effect="skeletal"
       id="path-effect4304-0"
       is_visible="true"
       pattern="m -2.3964356,-99.692296 c 11.85498,-3.293864 23.7099596,-6.325114 35.5649496,-6.505934 11.85498,-0.18082 23.70996,2.5272 35.56495,5.80148 11.85498,3.274284 23.70997,6.598754 35.564946,7.134104 11.85498,0.53535 23.70997,-1.8127 35.56495,-5.02901 11.85498,-3.216324 23.70997,-6.795034 35.56495,-7.678634 11.85498,-0.88361 23.70997,1.07695 35.56495,4.19759 11.85499,3.120644 23.70997,6.911634 35.56495,8.133134 11.85499,1.22151 23.70997,-0.32857 35.56495,-3.31695 11.85499,-2.98838 23.70998,-6.947214 35.56497,-8.492294 11.85498,-1.54508 23.70996,-0.42365 35.56495,2.39743 11.85498,2.82108 23.70996,6.901334 35.56495,8.751874 11.85498,1.85054 23.70996,1.17092 35.56495,-1.44979 11.85498,-2.62071 23.70997,-6.774554 35.56495,-8.908864 11.85498,-2.1343 23.70997,-1.90445 35.56495,0.48516 11.85498,2.38961 23.70997,6.568354 35.56495,8.961394 11.85499,2.39305 23.70997,2.61566 35.56495,0.48516 11.85499,-2.13049 23.70997,-6.285124 35.56495,-8.908854 11.85499,-2.62373 23.70997,-3.2962 35.56495,-1.44979 11.85499,1.8464 23.70997,5.928224 35.56496,8.751874 11.85498,2.82366 23.70996,3.93809 35.56495,2.39743 11.85498,-1.54067 23.70996,-5.50182 35.56495,-8.492294 11.85498,-2.99048 23.70997,-4.53382 35.56495,-3.31695 11.85498,1.21686 23.70997,5.0109 35.56495,8.133134 11.85498,3.12224 23.70997,5.07639 35.56495,4.19759 11.85498,-0.87879 23.70999,-4.46124 35.56499,-7.678634 11.8549,-3.21739 23.71,-5.55944 35.5649,-5.02901 11.855,0.53042 23.71,3.85928 35.565,7.134104 11.855,3.27482 23.71,5.97731 35.5649,5.80148 11.85492,-0.17583 23.70992,-3.21207 35.56492,-6.50593"
       copytype="single_stretched"
       prop_scale="1"
       scale_y_rel="false"
       spacing="0"
       normal_offset="0"
       tang_offset="0"
       prop_units="false"
       vertical_pattern="false"
       fuse_tolerance="0" />
  </defs>
  <metadata
     id="metadata7">
    <rdf:RDF>
      <cc:Work
         rdf:about="">
        <dc:format>image/svg+xml</dc:format>
        <dc:type
           rdf:resource="http://purl.org/dc/dcmitype/StillImage" />
        <dc:title></dc:title>
      </cc:Work>
    </rdf:RDF>
  </metadata>
  <g
     id="layer1"
     inkscape:groupmode="layer"
     inkscape:label="Capa 1"
     transform="translate(-210.62529,-375.56961)">
    <path
       id="path4424"
       title="cos(3*t) sin(7*t)"
       d="m 345.39691,446.01938 c -0.005,-35.33128 -4.88782,-67.84568 -13.68196,-69.78522 -8.79411,-1.93955 -21.45952,27.10775 -35.46613,62.22904 -14.00658,35.12127 -29.27975,70.78085 -42.78674,76.52326 -13.507,5.7424 -25.15929,-19.44378 -32.65833,-53.94328 -7.49906,-34.49949 -10.77852,-72.88617 -9.21139,-82.36411 1.56709,-9.47793 7.99789,11.5518 17.99207,45.02506 9.99417,33.47324 23.51265,74.13698 37.85812,87.23934 14.34549,13.10233 29.43862,-3.52443 42.28513,-35.57898 12.84649,-32.05456 23.35909,-74.5186 29.46764,-91.09176 6.10853,-16.57314 7.75344,-4.54427 4.63286,25.71577 -3.12059,30.26005 -11.01422,74.02655 -22.09128,93.8762 -11.07707,19.84963 -25.29009,12.55972 -39.80628,-15.55107 -14.51618,-28.11075 -29.25233,-72.66661 -41.28772,-95.56003 -12.0354,-22.89339 -21.28506,-20.42789 -25.93146,5.20404 -4.64642,25.63192 -4.63746,70.45472 0,96.12351 4.63744,25.66877 13.90137,28.05658 25.93146,5.20402 12.03008,-22.85257 26.77102,-67.41683 41.28772,-95.56004 14.51669,-28.14319 28.72309,-35.35632 39.80628,-15.55104 11.08319,19.80528 18.96147,63.58851 22.09128,93.87618 3.1298,30.28769 1.46709,42.24156 -4.63286,25.71578 -6.09996,-16.52582 -16.62557,-59.0147 -29.46764,-91.09176 -12.84208,-32.07704 -27.93811,-48.63154 -42.28513,-35.57897 -14.34701,13.05256 -27.85708,53.74896 -37.85812,87.23934 -10.00104,33.49035 -16.41557,54.45134 -17.99207,45.02504 -1.57652,-9.4263 1.72043,-47.85308 9.21139,-82.36411 7.49095,-34.51102 19.15482,-59.63279 32.65833,-53.94326 13.50349,5.68952 28.77762,41.39619 42.78674,76.52326 14.00913,35.12705 26.66451,64.11507 35.46613,62.22903 8.80166,-1.88604 13.67722,-34.45393 13.68196,-69.78524"
       style="opacity:0.14900004;fill:none;fill-rule:evenodd;stroke:#ffaaaa;stroke-width:1.14755678px;stroke-linecap:butt;stroke-linejoin:miter;stroke-opacity:1"
       inkscape:connector-curvature="0" />
    <path
       style="fill:none;fill-rule:evenodd;stroke:#87decd;stroke-width:5;stroke-linecap:butt;stroke-linejoin:miter;stroke-miterlimit:4;stroke-dasharray:none;stroke-opacity:1"
       d="m 239.23222,448.87525 c 1.76513,-3.1327 3.51527,-6.00236 4.97713,-6.03697 1.46157,-0.0346 2.62051,2.80392 3.7076,6.20378 1.03507,3.23717 2.0557,6.52125 3.33173,7.4093 0.0629,0.0456 0.12638,0.0853 0.19056,0.1187 1.34484,0.69974 3.01066,-1.45499 4.82927,-4.46123 1.82121,-3.01052 3.72419,-6.34976 5.31225,-7.02007 1.58055,-0.66716 2.77412,1.49799 3.73887,4.8067 0.96108,3.29611 1.77636,7.29889 2.94828,8.72664 1.18304,1.4413 2.81301,0.1646 4.76359,-2.50953 1.96275,-2.6908 4.12274,-6.25706 5.9061,-7.48834 0.77827,-0.53733 1.45659,-0.56013 2.04015,-0.15271 0.73458,0.51354 1.3197,1.71162 1.7702,3.42667 0.78812,3.00035 1.28716,7.45315 2.15996,9.50929 0.90594,2.13417 2.37271,1.8177 4.43011,-0.32826 2.0047,-2.09101 4.17882,-5.15479 6.27282,-6.95526 0.14441,-0.12464 0.28673,-0.24128 0.42663,-0.34891 2.06312,-1.58713 3.50902,-0.87805 4.12866,1.8926 0.67717,3.02785 0.43725,6.93399 0.77646,9.91333 0.31169,2.7376 1.28727,3.41247 3.41241,2.11726 0.10767,-0.0656 0.21798,-0.13555 0.33077,-0.20932 0,0 0,0 0,0 2.37375,-1.51975 4.9012,-4.0051 7.8416,-5.39656 2.75507,-1.30375 4.86031,-0.62966 4.94216,2.02836 0.0408,1.32619 -0.40448,2.99067 -1.14225,4.64682 -0.73052,1.65637 -1.69893,3.13598 -2.66263,4.31004 -0.9782,1.19173 -1.63472,1.76598 -2.05523,2.18836 -0.38147,0.36088 -0.26332,0.42592 0.54375,0.62788 0.71407,0.17869 1.77294,0.44667 3.03801,1.06277 1.62206,1.0368 3.42226,2.07834 5.01555,3.20047 2.73132,1.92362 3.99665,3.78408 2.4773,5.06995 -1.54739,1.30963 -5.53739,1.91221 -8.9529,2.4789 -3.39643,0.56352 -5.59398,1.20442 -5.17047,2.69798 0.40981,1.44529 3.36875,4.00587 5.73183,6.56648 2.38771,2.58731 3.82198,5.09251 2.5898,6.314 -1.02343,1.01456 -3.73589,1.03712 -6.65967,0.67982 -0.59085,-0.0722 -1.1869,-0.15876 -1.78093,-0.25425 -3.54073,-0.56915 -6.39768,-1.19442 -6.94821,-0.26631 -0.25186,0.42459 -0.10058,1.1851 0.23049,2.20353 l 0,0 0,0 c 0.3178,0.97746 0.83914,2.18398 1.29387,3.5384 l 0,0 c 0.11797,0.3514 0.2366,0.7109 0.33975,1.08136 l 0,0 0,10e-6 c 0.0276,0.0946 0.0541,0.19012 0.0776,0.28743 l 0,0 c 0.0272,0.0606 0.0351,0.0955 0.0238,0.10401 -3e-5,3e-5 -5e-5,4e-5 -5e-5,4e-5"
       id="path4302"
       inkscape:path-effect="#path-effect4304"
       inkscape:original-d="m 239.23223,448.87503 c 0,0 81.54574,5.93279 78.61164,28.42756 -3.30802,25.36145 -14.38497,33.35582 -14.38497,33.35582"
       inkscape:connector-curvature="0"
       sodipodi:nodetypes="csc" />
    <path
       sodipodi:nodetypes="ccccc"
       inkscape:connector-curvature="0"
       id="path3336"
       d="m 305.16314,393.77519 -66.16032,0 0,60.09561 0,56.78762 66.71165,0"
       style="fill:none;fill-rule:evenodd;stroke:#ff5555;stroke-width:5;stroke-linecap:butt;stroke-linejoin:miter;stroke-miterlimit:4;stroke-dasharray:none;stroke-opacity:1" />
    <g
       style="font-style:normal;font-weight:normal;font-size:27.5px;line-height:125%;font-family:sans-serif;letter-spacing:0px;word-spacing:0px;fill:#000000;fill-opacity:1;stroke:none;stroke-width:1px;stroke-linecap:butt;stroke-linejoin:miter;stroke-opacity:1"
       id="text3338">
      <path
         d="m 210.94327,515.62158 1.34277,0 0,18.94654 9.76196,0 0,1.10107 -11.10473,0 0,-20.04761 z"
         style="font-style:normal;font-variant:normal;font-weight:300;font-stretch:normal;font-family:'PT Symbol 1';-inkscape-font-specification:'PT Symbol 1 Light'"
         id="path4952" />
      <path
         d="m 226.23746,515.62158 11.33301,0 0,1.1145 -9.96338,0 0,7.6941 9.54712,0 0,1.08764 -9.54712,0 0,9.06372 10.20507,0 0,1.08765 -11.5747,0 0,-20.04761 z"
         style="font-style:normal;font-variant:normal;font-weight:300;font-stretch:normal;font-family:'PT Symbol 1';-inkscape-font-specification:'PT Symbol 1 Light'"
         id="path4954" />
      <path
         d="m 249.62857,516.97778 -4.29687,11.2793 8.52661,0 -4.22974,-11.2793 z m -0.85937,-1.3562 1.75903,0 7.66724,20.04761 -1.53077,0 -2.39013,-6.29761 -9.35913,0 -2.37671,6.29761 -1.42334,0 7.65381,-20.04761 z"
         style="font-style:normal;font-variant:normal;font-weight:300;font-stretch:normal;font-family:'PT Symbol 1';-inkscape-font-specification:'PT Symbol 1 Light'"
         id="path4956" />
      <path
         d="m 270.73697,526.26978 q 0.83252,0.29541 1.61133,1.2622 0.55053,0.69824 1.57104,2.65869 l 2.8064,5.47852 -1.43677,0 -2.86011,-5.50537 q -1.1145,-2.16187 -2.13501,-2.86011 -1.04736,-0.69824 -2.83325,-0.69824 l -3.63891,0 0,9.06372 -1.34278,0 0,-20.04761 5.43823,0 q 3.07496,0 4.59229,1.43677 1.51733,1.43677 1.51733,4.33716 0,1.86645 -0.79223,3.14209 -0.75196,1.24878 -2.49756,1.73218 z m -6.91528,-9.54712 0,8.76831 4.43115,0 q 2.14844,0 3.24951,-1.11451 1.10107,-1.1145 1.10107,-3.28979 0,-2.16187 -1.10107,-3.26294 -1.10107,-1.10107 -3.24951,-1.10107 l -4.43115,0 z"
         style="font-style:normal;font-variant:normal;font-weight:300;font-stretch:normal;font-family:'PT Symbol 1';-inkscape-font-specification:'PT Symbol 1 Light'"
         id="path4958" />
      <path
         d="m 281.5463,515.62158 1.9873,0 9.72168,18.32886 0,-18.32886 1.34277,0 0,20.04761 -1.90674,0 -9.77539,-18.44971 0,18.44971 -1.36962,0 0,-20.04761 z"
         style="font-style:normal;font-variant:normal;font-weight:300;font-stretch:normal;font-family:'PT Symbol 1';-inkscape-font-specification:'PT Symbol 1 Light'"
         id="path4960" />
      <path
         d="m 302.11758,515.62158 1.39649,0 0,20.04761 -1.39649,0 0,-20.04761 z"
         style="font-style:normal;font-variant:normal;font-weight:300;font-stretch:normal;font-family:'PT Symbol 1';-inkscape-font-specification:'PT Symbol 1 Light'"
         id="path4962" />
      <path
         d="m 310.22794,515.62158 1.9873,0 9.72168,18.32886 0,-18.32886 1.34277,0 0,20.04761 -1.90673,0 -9.7754,-18.44971 0,18.44971 -1.36962,0 0,-20.04761 z"
         style="font-style:normal;font-variant:normal;font-weight:300;font-stretch:normal;font-family:'PT Symbol 1';-inkscape-font-specification:'PT Symbol 1 Light'"
         id="path4964" />
      <path
         d="m 344.52237,533.96387 0,-7.02271 -5.11597,0 0,-1.10107 6.44532,0 0,8.76831 q -1.43677,0.71167 -3.15552,1.06079 -1.71875,0.36255 -3.6792,0.3894 -4.35059,0 -6.79444,-2.75268 -2.45727,-2.73926 -2.45727,-7.64038 0,-4.91455 2.45727,-7.66724 2.44385,-2.73926 6.79444,-2.73926 1.79931,0 3.39722,0.36255 1.61132,0.38941 2.9541,1.14136 l 0,1.30249 q -1.3562,-0.75195 -2.90039,-1.14136 -1.53077,-0.37597 -3.22266,-0.37597 -4.04175,0 -6.06934,2.29614 -2.02758,2.28271 -2.02758,6.82129 0,4.60571 2.02758,6.92871 2.02759,2.33642 6.06934,2.33642 1.65161,0 2.9541,-0.22827 1.28906,-0.2417 2.323,-0.73852 z"
         style="font-style:normal;font-variant:normal;font-weight:300;font-stretch:normal;font-family:'PT Symbol 1';-inkscape-font-specification:'PT Symbol 1 Light'"
         id="path4966" />
    </g>
    <path
       inkscape:path-effect="#path-effect4304-0"
       style="fill:none;fill-rule:evenodd;stroke:#ff5555;stroke-width:5;stroke-linecap:butt;stroke-linejoin:miter;stroke-miterlimit:4;stroke-dasharray:none;stroke-opacity:1"
       d="m 239.27582,449.20085 c 1.43351,-3.26701 2.84517,-6.27223 4.21153,-6.4287 1.36676,-0.15651 2.70327,2.57276 4.05284,5.86827 1.34995,3.29641 2.71586,6.63958 4.10344,7.19938 1.38624,0.55925 2.77853,-1.76393 4.15198,-4.95281 1.37279,-3.18738 2.73009,-6.74292 4.08782,-7.59964 1.36,-0.85816 2.73811,1.12319 4.14592,4.26534 1.39737,3.11882 2.81377,6.88442 4.21188,8.16463 0,0 0,0 0,0 0.0122,0.0101 0.0244,0.02 0.0366,0.0298 1.44804,1.15604 2.87647,-0.47892 4.14943,-3.5596 1.24876,-3.0221 2.42442,-7.20491 3.56874,-8.80938 1.18667,-1.66384 2.5213,-0.69104 4.1632,1.93828 1.67985,2.6901 3.51381,6.39843 5.30586,8.04149 1.72856,1.58484 3.14057,0.62943 4.02006,-2.22892 0.59798,-1.94346 0.95433,-4.42788 1.33515,-6.6765 0.18874,-1.10838 0.38235,-2.13684 0.61427,-2.93489 0.69874,-2.40438 1.84332,-2.48327 3.79946,-0.62451 2.14591,2.0391 4.49271,5.12781 7.0792,6.86918 0.56259,0.37877 1.08677,0.63453 1.56452,0.76819 1.51941,0.43279 2.59721,-0.39534 2.83856,-2.42979 0.34205,-2.88331 -0.7617,-6.77321 -1.61507,-9.6767 -0.37019,-1.2595 -0.5834,-2.15183 -0.51742,-2.68604 0.0727,-0.6059 0.54572,-0.73956 1.65025,-0.53985 2.42793,0.43899 5.74872,1.53607 9.44944,1.19797 0.77594,-0.0709 1.46773,-0.22059 2.05761,-0.44015 1.86984,-0.69249 2.67048,-2.0523 1.82028,-3.60755 -1.15659,-2.1157 -4.57523,-3.96508 -7.54898,-5.39046 0,0 0,0 0,0 -0.0811,-0.0388 -0.16146,-0.0772 -0.24125,-0.11528 -2.92327,-1.39403 -4.42221,-2.20202 -3.31051,-3.40439 0.87582,-0.94724 4.94022,-3.20125 7.44761,-5.11852 2.75872,-2.10945 4.25016,-4.31676 2.97912,-5.56362 -0.69362,-0.68043 -2.14621,-1.04992 -3.88007,-1.23351 -1.50453,-0.10234 -3.16627,-0.11062 -4.77973,-0.12885 -3.54626,-0.0401 -6.22797,-0.31056 -6.29238,-1.70401 -0.064,-1.38391 2.40793,-3.9646 4.76908,-6.60536 2.36533,-2.64544 4.17305,-5.14837 3.40917,-6.38431 -0.76523,-1.23811 -4.03757,-1.13352 -7.4934,-0.80566 0,0 -10e-6,0 -10e-6,0 0,0 -3e-4,1.4e-4 -3e-4,1.4e-4"
       id="path4302-2"
       inkscape:original-d="m 239.27581,449.20063 c 0,0 53.70307,5.01422 69.74401,-11.02672 14.6104,-14.6104 -4.40008,-44.27941 -4.40008,-44.27941"
       inkscape:connector-curvature="0"
       sodipodi:nodetypes="csc" />
  </g>
</svg>
